<svg width="424" height="407" viewBox="0 0 424 407" fill="none" xmlns="http://www.w3.org/2000/svg">
<g clip-path="url(#clip0_561_2)" filter="url(#filter0_b_561_2)">
<g filter="url(#filter1_b_561_2)">
<rect width="281.923" height="260.646" rx="29.1379" transform="matrix(-0.901326 -0.256109 0.615857 -0.516397 252.367 379.877)" fill="#165C72" fill-opacity="0.84"/>
<rect width="281.923" height="260.646" rx="29.1379" transform="matrix(-0.901326 -0.256109 0.615857 -0.516397 255.066 343.369)" fill="#791D6A" fill-opacity="0.8"/>
<rect width="281.923" height="260.646" rx="29.1379" transform="matrix(-0.901326 -0.256109 0.615857 -0.516397 257.767 306.862)" fill="#D9D9D9" fill-opacity="0.78"/>
<rect width="281.923" height="260.646" rx="29.1379" transform="matrix(-0.901326 -0.256109 0.615857 -0.516397 260.466 270.354)" fill="#656565" fill-opacity="0.96"/>
<rect width="281.923" height="260.646" rx="29.1379" transform="matrix(-0.901326 -0.256109 0.615857 -0.516397 263.165 233.846)" fill="#19A04F" fill-opacity="0.92"/>
</g>
</g>
<defs>
<filter id="filter0_b_561_2" x="-3.1543" y="-3.47791" width="430.31" height="413.956" filterUnits="userSpaceOnUse" color-interpolation-filters="sRGB">
<feFlood flood-opacity="0" result="BackgroundImageFix"/>
<feGaussianBlur in="BackgroundImageFix" stdDeviation="2"/>
<feComposite in2="SourceAlpha" operator="in" result="effect1_backgroundBlur_561_2"/>
<feBlend mode="normal" in="SourceGraphic" in2="effect1_backgroundBlur_561_2" result="shape"/>
</filter>
<filter id="filter1_b_561_2" x="-14.8213" y="-102.049" width="451.591" height="611.021" filterUnits="userSpaceOnUse" color-interpolation-filters="sRGB">
<feFlood flood-opacity="0" result="BackgroundImageFix"/>
<feGaussianBlur in="BackgroundImageFix" stdDeviation="2"/>
<feComposite in2="SourceAlpha" operator="in" result="effect1_backgroundBlur_561_2"/>
<feBlend mode="normal" in="SourceGraphic" in2="effect1_backgroundBlur_561_2" result="shape"/>
</filter>
<clipPath id="clip0_561_2">
<rect width="408" height="391" fill="white" transform="translate(15.4395 0.522095) rotate(2.13902)"/>
</clipPath>
</defs>
</svg>
